# AST/ASF file generated using VICON BodyLanguage
# -----------------------------------------------
:version 1.10
:name VICON
:units
  mass 1.0
  length 0.45
  angle deg
:documentation
   .ast/.asf automatically generated from VICON data using
   VICON BodyBuilder and BodyLanguage model FoxedUp or BRILLIANT.MOD
:root
   order TX TY TZ RX RY RZ
   axis XYZ
   position 0 0 0  
   orientation 0 -0 0 
:bonedata
  begin
     id 1 
     name lhipjoint
     direction 0.500677 -0.737119 0.453848 
     length 2.34727 
     axis 0 -0 0  XYZ
  end
  begin
     id 2 
     name lfemur
     direction 0.34202 -0.939693 0  
     length 7.53653  
     axis 0 -0 20  XYZ
    dof rx ry rz
    limits (-160.0 20.0)
           (-70.0 70.0)
           (-60.0 70.0)
  end
  begin
     id 3 
     name ltibia
     direction 0.34202 -0.939693 0   
     length 6.85572   
     axis 0 -0 20   XYZ
    dof rx
    limits (-10.0 170.0)
  end
  begin
     id 4 
     name lfoot
     direction 0.155313 -0.426718 0.890949   
     length 2.18324   
     axis -90 -1.13533e-015 20   XYZ
    dof rx rz
    limits (-45.0 90.0)
           (-70.0 20.0)
  end
  begin
     id 5 
     name ltoes
     direction 1.53474e-011 -4.21647e-011 1   
     length 1.06748   
     axis -90 -1.13533e-015 20   XYZ
    dof rx
    limits (-90.0 20.0)
  end
  begin
     id 6 
     name rhipjoint
     direction -0.632471 -0.659587 0.406111   
     length 2.62319  
     axis 0 -0 0  XYZ 
  end
  begin
     id 7 
     name rfemur
     direction -0.34202 -0.939693 0   
     length 7.21735   
     axis 0 -0 -20   XYZ
    dof rx ry rz
    limits (-160.0 20.0)
           (-70.0 70.0)
           (-70.0 60.0)
  end
  begin
     id 8 
     name rtibia
     direction -0.34202 -0.939693 0   
     length 7.02558   
     axis 0 -0 -20   XYZ
    dof rx
    limits (-10.0 170.0)
 end
 begin
     id 9 
     name rfoot
     direction -0.16057 -0.441164 0.882945   
     length 2.10014  
     axis -90 1.13533e-015 -20   XYZ
    dof rx rz
    limits (-45.0 90.0)
           (-20.0 70.0)
  end
  begin
     id 10 
     name rtoes
     direction -1.53553e-011 -4.2192e-011 1   
     length 1.02554   
     axis -90 1.13533e-015 -20   XYZ
    dof rx
    limits (-90.0 20.0)
  end
  begin
     id 11 
     name lowerback
     direction 0.0401429 0.998861 -0.0258085   
     length 1.80848   
     axis 0 -0 0   XYZ
    dof rx ry rz
    limits (-20.0 45.0)
           (-30.0 30.0)
           (-30.0 30.0)
  end
  begin
     id 12 
     name upperback
     direction -0.0130978 0.999914 -0.000352645   
     length 1.8116   
     axis 0 -0 0   XYZ
    dof rx ry rz
    limits (-20.0 45.0)
           (-30.0 30.0)
           (-30.0 30.0)
  end
  begin
     id 13 
     name thorax
     direction -0.0300198 0.999453 0.0138573   
     length 1.81778   
     axis 0 -0 0   XYZ
    dof rx ry rz
    limits (-20.0 45.0)
           (-30.0 30.0)
           (-30.0 30.0)
  end
  begin
     id 14 
     name lowerneck
     direction -0.0401726 0.999191 -0.00173647   
     length 2.10594   
     axis 0 -0 0   XYZ
    dof rx ry rz
    limits (-20.0 45.0)
           (-30.0 30.0)
           (-30.0 30.0)
  end
  begin
     id 15 
     name upperneck
     direction 0.0119835 0.998501 0.0534085   
     length 2.07325   
     axis 0 -0 0   XYZ
    dof rx ry rz
    limits (-20.0 45.0)
           (-30.0 30.0)
           (-30.0 30.0)
  end
  begin
     id 16
     name head
     direction 0.00628309 0.999826 0.0175921  
     length 2.15096  
     axis 0 -0 0   XYZ
    dof rx ry rz
    limits (-20.0 45.0)
           (-30.0 30.0)
           (-30.0 30.0)
  end
  begin
     id 17 
     name lclavicle
     direction 0.895501 0.429681 -0.115981  
     length 4.18092  
     axis 0 -0 0   XYZ
    dof ry rz
    limits (-20.0 10.0)
           (0.0 20.0)
  end
  begin
     id 18 
     name lhumerus
     direction 1 -4.48961e-011 -3.38433e-028   
     length 5.77237   
     axis 180 -30 -90   XYZ
    dof rx ry rz
    limits (-60.0 90.0)
           (-90.0 90.0)
           (-90.0 90.0)
  end
  begin
     id 19
     name lradius
     direction 1 -4.4901e-011 1.11983e-026   
     length 2.91878   
     axis 180 -30 -90   XYZ
    dof rx
    limits (-10.0 170.0)
  end
  begin
     id 20
     name lwrist
     direction 1 -4.48934e-011 1.88176e-026   
     length 1.45939   
     axis -1.23311e-014 90 90   XYZ
    dof ry
    limits (-180.0 0.0)
 end
  begin
     id 21 
     name lhand
     direction 1 -4.4895e-011 3.76352e-026   
     length 1.06566   
     axis -2.40147e-014 90 90   XYZ
    dof rx rz
    limits (-90.0 90.0)
           (-45.0 45.0)
  end
  begin
     id 22 
     name lfingers
     direction 1 -4.49005e-011 7.52705e-026   
     length 0.859162   
     axis -4.80295e-014 90 90   XYZ
    dof rx
    limits (0.0 90.0)
  end
  begin
     id 23
     name lthumb
     direction 0.707107 -6.34885e-011 0.707107   
     length 1.23359   
     axis -90 45 -9.86935e-015   XYZ
    dof rx rz
    limits (-45.0 45.0)
           (-45.0 45.0)
  end
  begin
     id 24 
     name rclavicle
     direction -0.91006 0.40451 -0.0903492   
     length 4.23293  
     axis 0 -0 0   XYZ 
    dof ry rz
    limits (-10.0 20.0)
           (-20.0 0.0)
  end
  begin
     id 25 
     name rhumerus
     direction -1 -4.4897e-011 1.7415e-027  
     length 5.49854   
     axis 180 30 90   XYZ
    dof rx ry rz
    limits (-90.0 60.0)
           (-90.0 90.0)
           (-90.0 90.0)
  end
  begin
     id 26 
     name rradius
     direction -1 -4.48963e-011 1.21259e-026   
     length 3.1186   
     axis 180 30 90   XYZ
    dof rx
    limits (-10.0 170.0)
  end
  begin
     id 27 
     name rwrist
     direction -1 -4.48967e-011 1.88176e-026   
     length 1.5593   
     axis -1.23311e-014 -90 -90   XYZ
    dof ry
    limits (-180.0 0.0)
  end
  begin
     id 28
     name rhand
     direction -1 -4.4895e-011 3.76352e-026   
     length 0.71207   
     axis -2.40147e-014 -90 -90   XYZ
    dof rx rz
    limits (-90.0 90.0)
           (-45.0 45.0)
  end
  begin
     id 29
     name rfingers
     direction -1 -4.49005e-011 7.52705e-026   
     length 0.574089   
     axis -4.80295e-014 -90 -90   XYZ
    dof rx
    limits (0.0 90.0)
  end
  begin
     id 30
     name rthumb
     direction -0.707107 -6.34982e-011 0.707107   
     length 0.824281   
     axis -90 -45 9.86935e-015   XYZ
    dof rx rz
    limits (-45.0 45.0)
           (-45.0 45.0)
  end
:hierarchy
  begin
    root lhipjoint rhipjoint lowerback
    lhipjoint lfemur
    lfemur ltibia
    ltibia lfoot
    lfoot ltoes
    rhipjoint rfemur
    rfemur rtibia
    rtibia rfoot
    rfoot rtoes
    lowerback upperback
    upperback thorax
    thorax lowerneck lclavicle rclavicle
    lowerneck upperneck
    upperneck head
    lclavicle lhumerus
    lhumerus lradius
    lradius lwrist
    lwrist lhand lthumb
    lhand lfingers
    rclavicle rhumerus
    rhumerus rradius
    rradius rwrist
    rwrist rhand rthumb
    rhand rfingers
  end

#!OML:ASF C:\ViconDB\ViconDB\414\Spring2016\042216\male.ASF
:FULLY-SPECIFIED
:DEGREES
792
root 14.8156 17.5069 10.3965 -178.208 19.4568 -179.513
lowerback -3.28273 -3.21741 0.0513382
upperback -0.794298 -4.26577 -0.378116
thorax 0.988755 -2.12284 -0.58821
lowerneck -5.03386 -1.99799 -8.25198
upperneck 5.05878 -2.58703 9.69213
head 2.55346 -1.10825 4.1868
rclavicle 4.57702e-014 3.77691e-015
rhumerus -28.7711 -2.11636 -94.2036
rradius 26.3135
rwrist 28.0854
rhand 12.7171 -18.1233
rfingers 7.12502
rthumb 37.6986 -44.0039
lclavicle 4.57702e-014 3.77691e-015
lhumerus -38.3209 15.7334 88.1025
lradius 29.0162
lwrist -16.3609
lhand -4.94109 13.9548
lfingers 7.12502
lthumb 20.85 42.8544
rfemur -19.4728 -11.043 25.0096
rtibia 22.7741
rfoot -10.137 5.48986
rtoes -4.12082
lfemur 13.5716 -1.3927 -25.3477
ltibia -7.95139e-015
lfoot -20.72 -0.824434
ltoes -10.5977
793
root 14.8364 17.5068 10.3291 -178.236 19.4318 -179.651
lowerback -3.21896 -3.20518 -0.109465
upperback -0.861166 -4.2434 -0.360782
thorax 0.897826 -2.11162 -0.474161
lowerneck -5.06045 -1.96635 -8.04051
upperneck 5.03871 -2.55011 9.58691
head 2.54454 -1.08838 4.12053
rclavicle -3.94774e-014 -3.77691e-015
rhumerus -28.8259 -2.26365 -94.0967
rradius 26.3129
rwrist 27.9815
rhand 12.7868 -18.3116
rfingers 7.12502
rthumb 37.7644 -44.1745
lclavicle -3.94774e-014 -3.77691e-015
lhumerus -38.2846 15.8233 87.9006
lradius 28.8764
lwrist -17.0453
lhand -5.40072 14.1305
lfingers 7.12502
lthumb 20.4084 43.0781
rfemur -19.3155 -10.6183 24.7558
rtibia 23.0033
rfoot -10.246 5.29609
rtoes -3.38078
lfemur 13.7955 -1.32984 -25.5394
ltibia -4.45278e-014
lfoot -20.5555 -0.785169
ltoes -10.9894
794
root 14.8594 17.5064 10.2585 -178.222 19.3625 -179.62
lowerback -3.28395 -3.18681 -0.0204796
upperback -0.898899 -4.22094 -0.339189
thorax 0.890781 -2.09989 -0.503129
lowerneck -4.84327 -2.05887 -8.11933
upperneck 4.86632 -2.67833 9.70108
head 2.4718 -1.15589 4.16454
rclavicle 7.44262e-014 5.36719e-015
rhumerus -28.9132 -2.50007 -93.9656
rradius 26.3904
rwrist 27.9728
rhand 12.7603 -18.4256
rfingers 7.12502
rthumb 37.7394 -44.2953
lclavicle 7.44262e-014 5.36719e-015
lhumerus -38.3484 15.7382 87.7862
lradius 28.9271
lwrist -17.4
lhand -5.51813 13.7899
lfingers 7.12502
lthumb 20.2955 42.7495
rfemur -18.9991 -9.63174 24.5924
rtibia 23.0932
rfoot -10.4055 4.44906
rtoes -2.79763
lfemur 14.0593 -1.30577 -25.5592
ltibia 4.45278e-014
lfoot -20.2188 -0.701662
ltoes -11.2416
795
root 14.8804 17.5068 10.1898 -178.247 19.2408 -179.683
lowerback -3.27183 -3.21858 -0.066446
upperback -0.928361 -4.26225 -0.276083
thorax 0.86166 -2.1205 -0.413154
lowerneck -4.94271 -2.05403 -8.14009
upperneck 4.92835 -2.66768 9.69729
head 2.50586 -1.14835 4.16673
rclavicle 1.80335e-014 -1.98785e-016
rhumerus -28.9017 -2.59543 -93.7716
rradius 26.3742
rwrist 28.1232
rhand 12.8728 -18.1172
rfingers 7.12502
rthumb 37.8457 -43.9582
lclavicle 1.80335e-014 -1.98785e-016
lhumerus -38.2916 15.615 87.8143
lradius 28.8968
lwrist -17.8054
lhand -5.5245 13.5283
lfingers 7.12502
lthumb 20.2894 42.4886
rfemur -18.7083 -9.01548 24.3909
rtibia 23.1885
rfoot -10.4281 3.9499
rtoes -1.20454
lfemur 14.3254 -1.33647 -25.6599
ltibia 8.26944e-014
lfoot -19.9521 -0.714194
ltoes -11.4055
796
root 14.9005 17.5047 10.1172 -178.22 19.2206 -179.381
lowerback -3.24325 -3.21837 0.328937
upperback -0.916141 -4.27719 -0.177513
thorax 0.836728 -2.12828 -0.530727
lowerneck -4.86598 -2.03276 -8.33736
upperneck 4.77956 -2.63587 10.0169
head 2.45317 -1.12754 4.2999
rclavicle -7.77248e-014 3.27995e-015
rhumerus -28.8325 -2.83401 -93.6639
rradius 26.2986
rwrist 28.393
rhand 12.7857 -18.0279
rfingers 7.12502
rthumb 37.7635 -43.8911
lclavicle -7.77248e-014 3.27995e-015
lhumerus -38.297 15.2795 87.842
lradius 29.1426
lwrist -17.8125
lhand -5.08653 13.261
lfingers 7.12502
lthumb 20.7103 42.176
rfemur -18.3045 -8.53024 24.6032
rtibia 23.1739
rfoot -10.419 3.6227
rtoes -0.609995
lfemur 14.7115 -1.25234 -25.3885
ltibia -9.54166e-015
lfoot -19.6464 -0.679022
ltoes -11.5333
797
root 14.9216 17.5023 10.0459 -178.295 19.2001 -179.451
lowerback -3.27622 -3.21958 0.407011
upperback -0.905616 -4.28064 -0.243547
thorax 0.855096 -2.12986 -0.643776
lowerneck -4.95595 -2.08698 -8.20391
upperneck 4.86384 -2.7151 10.0063
head 2.4986 -1.16068 4.27077
rclavicle 1.97107e-014 -1.49089e-015
rhumerus -28.7455 -3.29121 -93.5942
rradius 26.2215
rwrist 28.8863
rhand 12.6943 -17.9409
rfingers 7.12502
rthumb 37.6771 -43.8272
lclavicle 1.97107e-014 -1.49089e-015
lhumerus -38.3137 15.0627 87.7591
lradius 29.3838
lwrist -17.5295
lhand -5.21782 13.2506
lfingers 7.12502
lthumb 20.5841 42.1792
rfemur -18.0105 -8.33891 24.4632
rtibia 23.2291
rfoot -10.3785 3.56986
rtoes 0.158987
lfemur 15.0162 -1.17891 -25.4899
ltibia 3.49861e-014
lfoot -19.3047 -0.662536
ltoes -11.6843
798
root 14.9441 17.5072 9.9821 -178.242 19.113 -179.396
lowerback -3.28095 -3.26125 0.473318
upperback -0.96291 -4.3377 -0.18181
thorax 0.798104 -2.15815 -0.617785
lowerneck -4.96258 -2.04517 -8.20196
upperneck 4.94315 -2.66499 10.0739
head 2.51938 -1.13172 4.29365
rclavicle -8.19148e-014 8.94531e-016
rhumerus -28.7396 -3.49414 -93.4765
rradius 26.169
rwrist 29.3728
rhand 12.5839 -17.6753
rfingers 7.12502
rthumb 37.5728 -43.5895
lclavicle -8.19148e-014 8.94531e-016
lhumerus -38.349 14.7848 87.8334
lradius 29.6367
lwrist -16.8836
lhand -5.01703 13.288
lfingers 7.12502
lthumb 20.7771 42.1957
rfemur -17.8244 -8.11988 24.4848
rtibia 23.2719
rfoot -10.3143 3.50059
rtoes 0.823457
lfemur 15.1497 -1.18353 -25.4223
ltibia -2.54444e-014
lfoot -18.8025 -0.729011
ltoes -11.9594
799
root 14.9656 17.4986 9.9188 -178.222 19.0505 -179.412
lowerback -3.34962 -3.3141 0.429972
upperback -0.972883 -4.40768 -0.0736035
thorax 0.837062 -2.1927 -0.490295
lowerneck -4.99736 -2.02973 -8.35218
upperneck 4.96096 -2.63685 10.1393
head 2.53056 -1.11797 4.33992
rclavicle 1.22035e-014 -4.96962e-016
rhumerus -28.6448 -3.20547 -93.4337
rradius 26.1984
rwrist 29.3201
rhand 12.6197 -17.9236
rfingers 7.12502
rthumb 37.6066 -43.8288
lclavicle 1.22035e-014 -4.96962e-016
lhumerus -38.2599 14.147 88.2492
lradius 30.1033
lwrist -15.5601
lhand -4.94239 13.8331
lfingers 7.12502
lthumb 20.8488 42.7329
rfemur -17.6703 -7.93857 24.4177
rtibia 23.3934
rfoot -10.393 3.52158
rtoes 1.02211
lfemur 15.3588 -1.16237 -25.4353
ltibia 2.8625e-014
lfoot -18.2581 -0.711977
ltoes -12.2194
800
root 14.9848 17.4921 9.85447 -178.278 19.0869 -179.469
lowerback -3.34142 -3.33414 0.457121
upperback -0.985587 -4.43522 -0.0547024
thorax 0.818601 -2.20646 -0.486076
lowerneck -5.02405 -1.96756 -8.27697
upperneck 5.02854 -2.55668 10.064
head 2.5454 -1.07805 4.30747
rclavicle 4.29592e-014 1.59028e-015
rhumerus -28.5872 -3.11956 -93.4515
rradius 26.221
rwrist 29.5414
rhand 12.6093 -17.9347
rfingers 7.12502
rthumb 37.5968 -43.8425
lclavicle 4.29592e-014 1.59028e-015
lhumerus -38.1965 13.8326 88.321
lradius 30.3259
lwrist -14.6046
lhand -4.95667 13.6495
lfingers 7.12502
lthumb 20.835 42.5508
rfemur -17.4379 -8.2573 24.3501
rtibia 23.4584
rfoot -10.4245 4.14954
rtoes 1.15216
lfemur 15.6194 -1.04527 -25.4411
ltibia 3.18055e-015
lfoot -17.8156 -0.978173
ltoes -11.9881
801
root 15.0019 17.4914 9.79415 -178.303 19.0543 -179.507
lowerback -3.29325 -3.36532 0.614451
upperback -0.982136 -4.48121 -0.134229
thorax 0.776298 -2.22983 -0.652674
lowerneck -5.03817 -1.99905 -8.16493
upperneck 4.98641 -2.60315 10.0818
head 2.53855 -1.09746 4.29222
rclavicle -4.64504e-014 -5.76476e-015
rhumerus -28.4604 -3.14122 -93.6022
rradius 26.1962
rwrist 29.6958
rhand 12.6253 -17.9146
rfingers 7.12502
rthumb 37.6118 -43.8184
lclavicle -4.64504e-014 -5.76476e-015
lhumerus -38.0937 13.2935 88.3133
lradius 30.5925
lwrist -14.088
lhand -4.53127 13.841
lfingers 7.12502
lthumb 21.2437 42.6968
rfemur -17.2445 -8.10989 24.2277
rtibia 23.6339
rfoot -10.6321 4.26438
rtoes 1.57058
lfemur 15.7924 -1.00095 -25.4154
ltibia -7.95139e-014
lfoot -17.0866 -1.32196
ltoes -11.5298
